<?xml version="1.0" encoding="UTF-8" standalone="no"?>
<svg
   xmlns:dc="http://purl.org/dc/elements/1.1/"
   xmlns:cc="http://creativecommons.org/ns#"
   xmlns:rdf="http://www.w3.org/1999/02/22-rdf-syntax-ns#"
   xmlns:svg="http://www.w3.org/2000/svg"
   xmlns="http://www.w3.org/2000/svg"
   xmlns:sodipodi="http://sodipodi.sourceforge.net/DTD/sodipodi-0.dtd"
   xmlns:inkscape="http://www.inkscape.org/namespaces/inkscape"
   width="3046.7986"
   height="2197.4697"
   id="svg2"
   version="1.1"
   inkscape:version="0.47 r22583"
   sodipodi:docname="Flag_of_Honduras.svg">
  <metadata
     id="metadata45">
    <rdf:RDF>
      <cc:Work
         rdf:about="">
        <dc:format>image/svg+xml</dc:format>
        <dc:type
           rdf:resource="http://purl.org/dc/dcmitype/StillImage" />
      </cc:Work>
    </rdf:RDF>
  </metadata>
  <defs
     id="defs43">
    <inkscape:perspective
       sodipodi:type="inkscape:persp3d"
       inkscape:vp_x="0 : 500 : 1"
       inkscape:vp_y="0 : 1000 : 0"
       inkscape:vp_z="1416 : 500 : 1"
       inkscape:persp3d-origin="708 : 333.33333 : 1"
       id="perspective47" />
    <inkscape:perspective
       id="perspective2828"
       inkscape:persp3d-origin="0.5 : 0.33333333 : 1"
       inkscape:vp_z="1 : 0.5 : 1"
       inkscape:vp_y="0 : 1000 : 0"
       inkscape:vp_x="0 : 0.5 : 1"
       sodipodi:type="inkscape:persp3d" />
    <inkscape:perspective
       id="perspective3265"
       inkscape:persp3d-origin="0.5 : 0.33333333 : 1"
       inkscape:vp_z="1 : 0.5 : 1"
       inkscape:vp_y="0 : 1000 : 0"
       inkscape:vp_x="0 : 0.5 : 1"
       sodipodi:type="inkscape:persp3d" />
  </defs>
  <sodipodi:namedview
     pagecolor="#ffffff"
     bordercolor="#666666"
     borderopacity="1"
     objecttolerance="10"
     gridtolerance="10"
     guidetolerance="10"
     inkscape:pageopacity="0"
     inkscape:pageshadow="2"
     inkscape:window-width="1280"
     inkscape:window-height="1004"
     id="namedview41"
     showgrid="false"
     inkscape:zoom="0.0834386"
     inkscape:cx="649.33835"
     inkscape:cy="-274.30635"
     inkscape:window-x="-8"
     inkscape:window-y="-8"
     inkscape:window-maximized="1"
     inkscape:current-layer="svg2" />
  <path
     d="m 2213.2064,293.7433 -4.6922,1198.9719 23.4627,13.6246 44.5784,2.2708 21.1173,-15.8954 37.5408,0 2.3453,40.874 100.8913,95.3728 7.0376,36.3324 49.2721,-27.2494 9.386,-2.2708 4.6922,-43.1447 21.1158,-22.7079 16.425,-2.2707 28.1549,-20.4371 44.5799,29.5201 9.3845,40.8742 28.1549,15.8954 16.425,34.0617 56.3112,24.9786 49.2708,84.0188 39.8876,54.4987 32.8471,38.6034 21.1173,52.2278 72.7348,24.9787 75.0802,29.52 14.0782,61.3112 7.0391,43.1447 -14.0781,47.6865 -25.8096,31.7908 -23.4626,-11.3538 -21.1158,-43.1449 -39.8877,-20.4369 -25.808,-15.8956 -11.7314,11.3539 21.1158,38.6034 2.3468,52.2279 -16.4249,6.8123 -28.1549,-27.2494 -30.5017,-18.1662 7.039,22.7077 18.7704,24.9788 -11.7313,11.3538 c 0,0 -11.7313,-4.5415 -18.7704,-13.6247 -7.0392,-9.0831 -30.5018,-47.6863 -30.5018,-47.6863 l -14.0781,-31.791 c 0,0 -4.6922,18.1662 -14.0768,13.6246 -9.3858,-4.5415 -18.7704,-20.4369 -18.7704,-20.4369 l 25.8081,-27.2494 -21.1158,-20.437 0,-70.3943 -11.7314,0 -11.7313,47.6863 -16.4236,6.8126 -14.0781,-52.2281 -9.3859,-52.2279 -11.7314,-6.8123 4.6937,79.4774 0,15.8953 -21.1173,-18.1661 -51.6175,-84.0189 -30.5017,-6.8123 -9.3859,-52.2279 -23.4628,-40.874 -23.4626,-15.8957 0,-31.7908 30.5017,-18.1663 -7.0391,-4.5415 -37.5407,9.083 -49.2722,-34.0615 -37.5394,-40.8742 -70.3894,-36.3325 -58.6566,-36.3325 18.7704,-45.4155 0,-22.7078 -25.8095,22.7078 -42.233,15.8954 -53.9645,-15.8954 -82.1192,-34.0616 -79.7739,0 -9.386,6.8123 -93.8506,-54.4989 -30.5017,-4.5416 -39.8862,-81.748 -51.619,4.5415 -51.6176,20.4371 7.0376,63.5819 16.4251,-40.8739 14.0767,4.5415 -21.1157,61.311 46.9252,-38.6033 9.3859,22.7078 -56.3111,61.311 -18.7705,-4.5415 -7.0391,-27.2495 -18.7704,-11.3537 -18.7704,15.8954 -39.8862,-24.9785 -44.58,29.5201 -25.808,29.5201 -49.2721,29.5203 -68.0426,-2.2709 -7.0391,-29.5202 53.9644,-9.0831 0,-18.1662 -32.8471,-9.0833 14.0767,-34.0616 32.8485,-54.4987 0,-24.9785 2.3454,-11.354 63.3504,-31.7909 14.0781,18.1662 39.8863,0 -18.7704,-36.3324 -53.9644,-4.5416 -72.7348,38.6033 -35.194,47.6863 -25.8095,36.3326 -16.4236,31.791 -61.0034,20.4368 -44.58,36.3325 -4.6922,22.7078 32.8486,13.6249 11.7313,29.5198 -39.8877,45.4157 -93.8506,59.0404 -112.6224,59.0402 -30.5004,15.8954 -77.4284,15.8957 -77.42709,31.7908 25.8095,18.1663 -21.1173,20.4369 -7.039,15.8955 -39.8862,-13.6247 -46.9253,2.2707 -11.7313,31.791 -14.0783,0 4.6923,-34.0617 -51.6175,18.1664 -42.2331,13.6245 -49.2722,-18.1662 -42.233,27.2493 -46.9253,0 -30.5017,18.1664 -23.4627,11.3538 -30.5017,-4.5415 -37.5409,-15.8956 -32.8485,9.0833 -14.0768,13.6246 -23.4626,-15.8954 0,-27.2494 44.5784,-18.1663 91.5052,9.0832 63.3503,-22.7079 30.5018,-29.5201 42.2331,-9.0831 25.808,-11.354 39.8877,2.2708 23.4627,18.1663 14.0767,-4.5415 32.8485,-38.6032 44.5799,-13.6249 49.2722,-9.0831 18.7689,-4.5415 9.386,6.8123 11.7313,0 18.7704,-52.2279 58.65659,-20.4369 28.1565,-52.228 32.847,-63.5819 23.4627,-20.4371 4.6922,-36.3324 -23.4626,18.1662 -49.2721,9.0832 -9.3845,-34.0617 -18.7705,-4.5415 -14.07819,13.6246 -2.3454,40.8742 -21.1172,-2.2709 -21.1158,-81.7481 -18.7704,18.1661 -16.4235,-6.8123 -4.6938,-27.2493 -58.6566,2.2708 -30.5018,15.8955 -37.5408,-4.5415 21.1172,-20.4371 7.0392,-36.3324 -9.386,-27.2495 21.1173,-13.6246 18.7704,-2.2707 -9.3859,-24.9787 0,-61.311 -14.0768,-13.6247 -11.7327,20.437 -89.1584,0 -21.1157,-18.1663 -9.386,-54.4986 -30.5017,-49.9573 0,-13.6246 30.5017,-11.3539 2.3468,-29.5203 16.4236,-15.8952 -11.7314,-6.8123 -18.7703,6.8123 -16.4236,-38.6033 14.0782,-70.3944 65.6957,-45.4154 37.5394,-22.7079 28.1562,-52.2278 39.8864,-18.1664 37.5407,15.8957 4.6922,34.0617 35.194,-4.5419 46.9268,-34.0615 23.4626,9.0832 14.07669,9.083 23.4642,0 32.8471,-18.1662 11.7313,-61.3112 c 0,0 4.6923,-40.8739 14.0782,-47.6863 9.3845,-6.8123 14.0782,-13.6246 14.0782,-13.6246 l -16.425,-27.2494 -37.5393,11.354 -46.9269,11.3537 -28.15479,-6.8122 -51.6191,-24.9787 -72.7347,-2.2708 -51.6176,-52.22778 7.039,-54.4987 9.3846,-34.06173 -30.5018,-24.9785 -28.1549,-52.22817 7.0392,-11.35379 98.5443,-6.81229 30.5002,0 14.0782,13.62458 9.386,0 -2.3469,-22.70783 56.3112,-9.083 37.53929,4.5415 21.1174,15.89546 -21.1174,29.52021 -7.03749,20.43687 39.88619,22.70795 72.7348,24.9785 25.8095,-13.62456 -32.8486,-61.31105 -14.0768,-45.41567 14.0768,-11.35396 -49.2722,-27.24928 -7.0375,-15.89563 7.0375,-22.70762 -11.7313,-54.49872 -42.2331,-65.85269 -35.19389,-59.04026 42.23299,-27.24943 46.9253,0 25.8095,9.08319 61.0035,-2.27077 53.9644,-49.95706 16.4235,-43.14492 53.9659,-34.061725 23.4626,13.62473 39.8863,-9.0832 53.9644,-29.52021 16.4235,-2.27075 14.0782,11.35409 65.6957,-2.27091 39.8877,-43.1447697 16.4235,0 51.6176,34.0615897 28.1563,29.52019 -7.039,15.89548 9.3844,15.895485 23.4627,-22.707775 56.3113,4.54153 4.6922,52.227835 28.1563,20.43715 103.2366,9.08304 91.5052,59.04026 21.1157,-13.62457 75.0817,36.33249 30.5018,-9.08306 28.1548,-11.3541 70.388,27.24944 63.3503,40.87401 z m -1670.55359,406.46952 30.5018,74.93588 -2.3468,13.6246 -42.2332,-4.5416 -25.8094,-56.7695 -25.8082,-20.43678 -35.1939,0 -2.3468,-36.33262 25.8095,-34.06181 16.4235,34.06181 21.1159,20.43692 39.8876,9.0831 z m -37.5408,470.05158 53.9643,11.3539 53.9644,13.6246 11.7314,13.6249 -23.4627,52.2278 -44.5784,-2.2708 -49.2721,-49.957 -2.3469,-38.6034 z m -300.3237,-197.5579 16.4235,36.3324 16.4236,22.7079 -16.4236,11.3539 -30.5017,-43.1448 0,-27.2494 14.0782,0 z M 5.3543053,1999.0992 l 49.2720997,-31.7911 49.270705,-13.6246 37.5409,4.5415 7.039,22.7077 28.155,6.8124 28.1563,-27.2492 -4.6937,-22.7078 39.8877,-9.0832 42.233,36.3325 -16.4235,24.9784 -63.3504,15.8956 -39.8861,-6.8122 -53.9644,-15.8956 -63.350405,20.4371 -23.4626,4.5414 -16.4235997,-9.0829 z m 710.9230047,-63.5819 23.4627,27.2493 30.5017,-22.7077 -21.1159,-18.1664 -32.8485,13.6248 z m 42.2331,43.1447 16.4236,-31.7908 30.5017,4.5415 -11.7313,27.2493 -35.194,0 z m 342.55819,-27.2493 21.1158,24.9785 14.0782,-15.8953 -11.7314,-27.2495 -23.4626,18.1663 z m 126.6992,-174.8501 16.4236,81.7482 42.233,11.3539 72.7349,-40.8742 63.3488,-36.3325 -23.4627,-34.0617 7.0391,-34.0616 -30.5017,18.1662 -42.2331,-11.3539 23.4626,-15.8953 28.1564,11.3538 56.3099,-24.9788 7.039,-20.4368 -35.194,-11.3539 11.7314,-27.2495 -39.8863,27.2495 -68.0426,49.9572 -70.3879,40.874 -18.7704,15.8954 z m 614.7255,-279.3058 35.194,-20.4371 -14.0767,-24.9786 -25.8095,13.6247 4.6922,31.791 z"
     id="AK"
     style="fill:#0f204b;fill-opacity:1;stroke:#ffffff;stroke-width:10.70861053;stroke-miterlimit:4;stroke-opacity:1;stroke-dasharray:none" />
  <g
     style="fill:#ffb612"
     transform="matrix(52,0,0,52,2101.91,611.24334)"
     id="g3662">
    <g
       id="g3664">
      <polygon
         transform="matrix(0.95105652,0.30901699,-0.30901699,0.95105652,0,-1)"
         points="0.5,1 0,0 0,1 "
         id="polygon3666" />
      <polygon
         transform="matrix(-0.95105652,0.30901699,0.30901699,0.95105652,0,-1)"
         points="0,0 0,1 0.5,1 "
         id="use3668" />
    </g>
    <g
       id="use3670"
       transform="matrix(0.30901699,0.95105652,-0.95105652,0.30901699,0,0)">
      <polygon
         transform="matrix(0.95105652,0.30901699,-0.30901699,0.95105652,0,-1)"
         points="0,0 0,1 0.5,1 "
         id="polygon3863" />
      <polygon
         transform="matrix(-0.95105652,0.30901699,0.30901699,0.95105652,0,-1)"
         points="0,0 0,1 0.5,1 "
         id="use3865" />
    </g>
    <g
       id="use3672"
       transform="matrix(0.30901699,-0.95105652,0.95105652,0.30901699,0,0)">
      <polygon
         transform="matrix(0.95105652,0.30901699,-0.30901699,0.95105652,0,-1)"
         points="0,0 0,1 0.5,1 "
         id="polygon3869" />
      <polygon
         transform="matrix(-0.95105652,0.30901699,0.30901699,0.95105652,0,-1)"
         points="0,0 0,1 0.5,1 "
         id="use3871" />
    </g>
    <g
       id="use3674"
       transform="matrix(-0.80901699,0.58778525,-0.58778525,-0.80901699,0,0)">
      <polygon
         transform="matrix(0.95105652,0.30901699,-0.30901699,0.95105652,0,-1)"
         points="0,0 0,1 0.5,1 "
         id="polygon3875" />
      <polygon
         transform="matrix(-0.95105652,0.30901699,0.30901699,0.95105652,0,-1)"
         points="0,0 0,1 0.5,1 "
         id="use3877" />
    </g>
    <g
       id="use3676"
       transform="matrix(-0.80901699,-0.58778525,0.58778525,-0.80901699,0,0)">
      <polygon
         transform="matrix(0.95105652,0.30901699,-0.30901699,0.95105652,0,-1)"
         points="0,0 0,1 0.5,1 "
         id="polygon3881" />
      <polygon
         transform="matrix(-0.95105652,0.30901699,0.30901699,0.95105652,0,-1)"
         points="0,0 0,1 0.5,1 "
         id="use3883" />
    </g>
  </g>
  <g
     style="fill:#ffb612"
     transform="matrix(31,0,0,31,1172.91,825.2433)"
     id="g3678">
    <g
       id="g3680">
      <polygon
         transform="matrix(0.95105652,0.30901699,-0.30901699,0.95105652,0,-1)"
         points="0.5,1 0,0 0,1 "
         id="polygon3682" />
      <polygon
         transform="matrix(-0.95105652,0.30901699,0.30901699,0.95105652,0,-1)"
         points="0,0 0,1 0.5,1 "
         id="use3684" />
    </g>
    <g
       id="use3686"
       transform="matrix(0.30901699,0.95105652,-0.95105652,0.30901699,0,0)">
      <polygon
         transform="matrix(0.95105652,0.30901699,-0.30901699,0.95105652,0,-1)"
         points="0,0 0,1 0.5,1 "
         id="polygon3887" />
      <polygon
         transform="matrix(-0.95105652,0.30901699,0.30901699,0.95105652,0,-1)"
         points="0,0 0,1 0.5,1 "
         id="use3889" />
    </g>
    <g
       id="use3688"
       transform="matrix(0.30901699,-0.95105652,0.95105652,0.30901699,0,0)">
      <polygon
         transform="matrix(0.95105652,0.30901699,-0.30901699,0.95105652,0,-1)"
         points="0,0 0,1 0.5,1 "
         id="polygon3893" />
      <polygon
         transform="matrix(-0.95105652,0.30901699,0.30901699,0.95105652,0,-1)"
         points="0,0 0,1 0.5,1 "
         id="use3895" />
    </g>
    <g
       id="use3690"
       transform="matrix(-0.80901699,0.58778525,-0.58778525,-0.80901699,0,0)">
      <polygon
         transform="matrix(0.95105652,0.30901699,-0.30901699,0.95105652,0,-1)"
         points="0,0 0,1 0.5,1 "
         id="polygon3899" />
      <polygon
         transform="matrix(-0.95105652,0.30901699,0.30901699,0.95105652,0,-1)"
         points="0,0 0,1 0.5,1 "
         id="use3901" />
    </g>
    <g
       id="use3692"
       transform="matrix(-0.80901699,-0.58778525,0.58778525,-0.80901699,0,0)">
      <polygon
         transform="matrix(0.95105652,0.30901699,-0.30901699,0.95105652,0,-1)"
         points="0,0 0,1 0.5,1 "
         id="polygon3905" />
      <polygon
         transform="matrix(-0.95105652,0.30901699,0.30901699,0.95105652,0,-1)"
         points="0,0 0,1 0.5,1 "
         id="use3907" />
    </g>
  </g>
  <g
     style="fill:#ffb612"
     transform="matrix(31,0,0,31,1339.91,887.2434)"
     id="use3694">
    <g
       id="g3743">
      <polygon
         transform="matrix(0.95105652,0.30901699,-0.30901699,0.95105652,0,-1)"
         points="0,0 0,1 0.5,1 "
         id="polygon3745" />
      <polygon
         transform="matrix(-0.95105652,0.30901699,0.30901699,0.95105652,0,-1)"
         points="0,0 0,1 0.5,1 "
         id="use3747" />
    </g>
    <g
       id="use3749"
       transform="matrix(0.30901699,0.95105652,-0.95105652,0.30901699,0,0)">
      <polygon
         transform="matrix(0.95105652,0.30901699,-0.30901699,0.95105652,0,-1)"
         points="0,0 0,1 0.5,1 "
         id="polygon3911" />
      <polygon
         transform="matrix(-0.95105652,0.30901699,0.30901699,0.95105652,0,-1)"
         points="0,0 0,1 0.5,1 "
         id="use3913" />
    </g>
    <g
       id="use3751"
       transform="matrix(0.30901699,-0.95105652,0.95105652,0.30901699,0,0)">
      <polygon
         transform="matrix(0.95105652,0.30901699,-0.30901699,0.95105652,0,-1)"
         points="0,0 0,1 0.5,1 "
         id="polygon3917" />
      <polygon
         transform="matrix(-0.95105652,0.30901699,0.30901699,0.95105652,0,-1)"
         points="0,0 0,1 0.5,1 "
         id="use3919" />
    </g>
    <g
       id="use3753"
       transform="matrix(-0.80901699,0.58778525,-0.58778525,-0.80901699,0,0)">
      <polygon
         transform="matrix(0.95105652,0.30901699,-0.30901699,0.95105652,0,-1)"
         points="0,0 0,1 0.5,1 "
         id="polygon3923" />
      <polygon
         transform="matrix(-0.95105652,0.30901699,0.30901699,0.95105652,0,-1)"
         points="0,0 0,1 0.5,1 "
         id="use3925" />
    </g>
    <g
       id="use3755"
       transform="matrix(-0.80901699,-0.58778525,0.58778525,-0.80901699,0,0)">
      <polygon
         transform="matrix(0.95105652,0.30901699,-0.30901699,0.95105652,0,-1)"
         points="0,0 0,1 0.5,1 "
         id="polygon3929" />
      <polygon
         transform="matrix(-0.95105652,0.30901699,0.30901699,0.95105652,0,-1)"
         points="0,0 0,1 0.5,1 "
         id="use3931" />
    </g>
  </g>
  <g
     style="fill:#ffb612"
     transform="matrix(31,0,0,31,1422.91,976.2434)"
     id="use3696">
    <g
       id="g3759">
      <polygon
         transform="matrix(0.95105652,0.30901699,-0.30901699,0.95105652,0,-1)"
         points="0,0 0,1 0.5,1 "
         id="polygon3761" />
      <polygon
         transform="matrix(-0.95105652,0.30901699,0.30901699,0.95105652,0,-1)"
         points="0,0 0,1 0.5,1 "
         id="use3763" />
    </g>
    <g
       id="use3765"
       transform="matrix(0.30901699,0.95105652,-0.95105652,0.30901699,0,0)">
      <polygon
         transform="matrix(0.95105652,0.30901699,-0.30901699,0.95105652,0,-1)"
         points="0,0 0,1 0.5,1 "
         id="polygon3935" />
      <polygon
         transform="matrix(-0.95105652,0.30901699,0.30901699,0.95105652,0,-1)"
         points="0,0 0,1 0.5,1 "
         id="use3937" />
    </g>
    <g
       id="use3767"
       transform="matrix(0.30901699,-0.95105652,0.95105652,0.30901699,0,0)">
      <polygon
         transform="matrix(0.95105652,0.30901699,-0.30901699,0.95105652,0,-1)"
         points="0,0 0,1 0.5,1 "
         id="polygon3941" />
      <polygon
         transform="matrix(-0.95105652,0.30901699,0.30901699,0.95105652,0,-1)"
         points="0,0 0,1 0.5,1 "
         id="use3943" />
    </g>
    <g
       id="use3769"
       transform="matrix(-0.80901699,0.58778525,-0.58778525,-0.80901699,0,0)">
      <polygon
         transform="matrix(0.95105652,0.30901699,-0.30901699,0.95105652,0,-1)"
         points="0,0 0,1 0.5,1 "
         id="polygon3947" />
      <polygon
         transform="matrix(-0.95105652,0.30901699,0.30901699,0.95105652,0,-1)"
         points="0,0 0,1 0.5,1 "
         id="use3949" />
    </g>
    <g
       id="use3771"
       transform="matrix(-0.80901699,-0.58778525,0.58778525,-0.80901699,0,0)">
      <polygon
         transform="matrix(0.95105652,0.30901699,-0.30901699,0.95105652,0,-1)"
         points="0,0 0,1 0.5,1 "
         id="polygon3953" />
      <polygon
         transform="matrix(-0.95105652,0.30901699,0.30901699,0.95105652,0,-1)"
         points="0,0 0,1 0.5,1 "
         id="use3955" />
    </g>
  </g>
  <g
     style="fill:#ffb612"
     transform="matrix(31,0,0,31,1506.91,1069.2434)"
     id="use3698">
    <g
       id="g3775">
      <polygon
         transform="matrix(0.95105652,0.30901699,-0.30901699,0.95105652,0,-1)"
         points="0,0 0,1 0.5,1 "
         id="polygon3777" />
      <polygon
         transform="matrix(-0.95105652,0.30901699,0.30901699,0.95105652,0,-1)"
         points="0,0 0,1 0.5,1 "
         id="use3779" />
    </g>
    <g
       id="use3781"
       transform="matrix(0.30901699,0.95105652,-0.95105652,0.30901699,0,0)">
      <polygon
         transform="matrix(0.95105652,0.30901699,-0.30901699,0.95105652,0,-1)"
         points="0,0 0,1 0.5,1 "
         id="polygon3959" />
      <polygon
         transform="matrix(-0.95105652,0.30901699,0.30901699,0.95105652,0,-1)"
         points="0,0 0,1 0.5,1 "
         id="use3961" />
    </g>
    <g
       id="use3783"
       transform="matrix(0.30901699,-0.95105652,0.95105652,0.30901699,0,0)">
      <polygon
         transform="matrix(0.95105652,0.30901699,-0.30901699,0.95105652,0,-1)"
         points="0,0 0,1 0.5,1 "
         id="polygon3965" />
      <polygon
         transform="matrix(-0.95105652,0.30901699,0.30901699,0.95105652,0,-1)"
         points="0,0 0,1 0.5,1 "
         id="use3967" />
    </g>
    <g
       id="use3785"
       transform="matrix(-0.80901699,0.58778525,-0.58778525,-0.80901699,0,0)">
      <polygon
         transform="matrix(0.95105652,0.30901699,-0.30901699,0.95105652,0,-1)"
         points="0,0 0,1 0.5,1 "
         id="polygon3971" />
      <polygon
         transform="matrix(-0.95105652,0.30901699,0.30901699,0.95105652,0,-1)"
         points="0,0 0,1 0.5,1 "
         id="use3973" />
    </g>
    <g
       id="use3787"
       transform="matrix(-0.80901699,-0.58778525,0.58778525,-0.80901699,0,0)">
      <polygon
         transform="matrix(0.95105652,0.30901699,-0.30901699,0.95105652,0,-1)"
         points="0,0 0,1 0.5,1 "
         id="polygon3977" />
      <polygon
         transform="matrix(-0.95105652,0.30901699,0.30901699,0.95105652,0,-1)"
         points="0,0 0,1 0.5,1 "
         id="use3979" />
    </g>
  </g>
  <g
     style="fill:#ffb612"
     transform="matrix(31,0,0,31,1756.91,1158.2434)"
     id="use3700">
    <g
       id="g3791">
      <polygon
         transform="matrix(0.95105652,0.30901699,-0.30901699,0.95105652,0,-1)"
         points="0,0 0,1 0.5,1 "
         id="polygon3793" />
      <polygon
         transform="matrix(-0.95105652,0.30901699,0.30901699,0.95105652,0,-1)"
         points="0,0 0,1 0.5,1 "
         id="use3795" />
    </g>
    <g
       id="use3797"
       transform="matrix(0.30901699,0.95105652,-0.95105652,0.30901699,0,0)">
      <polygon
         transform="matrix(0.95105652,0.30901699,-0.30901699,0.95105652,0,-1)"
         points="0,0 0,1 0.5,1 "
         id="polygon3983" />
      <polygon
         transform="matrix(-0.95105652,0.30901699,0.30901699,0.95105652,0,-1)"
         points="0,0 0,1 0.5,1 "
         id="use3985" />
    </g>
    <g
       id="use3799"
       transform="matrix(0.30901699,-0.95105652,0.95105652,0.30901699,0,0)">
      <polygon
         transform="matrix(0.95105652,0.30901699,-0.30901699,0.95105652,0,-1)"
         points="0,0 0,1 0.5,1 "
         id="polygon3989" />
      <polygon
         transform="matrix(-0.95105652,0.30901699,0.30901699,0.95105652,0,-1)"
         points="0,0 0,1 0.5,1 "
         id="use3991" />
    </g>
    <g
       id="use3801"
       transform="matrix(-0.80901699,0.58778525,-0.58778525,-0.80901699,0,0)">
      <polygon
         transform="matrix(0.95105652,0.30901699,-0.30901699,0.95105652,0,-1)"
         points="0,0 0,1 0.5,1 "
         id="polygon3995" />
      <polygon
         transform="matrix(-0.95105652,0.30901699,0.30901699,0.95105652,0,-1)"
         points="0,0 0,1 0.5,1 "
         id="use3997" />
    </g>
    <g
       id="use3803"
       transform="matrix(-0.80901699,-0.58778525,0.58778525,-0.80901699,0,0)">
      <polygon
         transform="matrix(0.95105652,0.30901699,-0.30901699,0.95105652,0,-1)"
         points="0,0 0,1 0.5,1 "
         id="polygon4001" />
      <polygon
         transform="matrix(-0.95105652,0.30901699,0.30901699,0.95105652,0,-1)"
         points="0,0 0,1 0.5,1 "
         id="use4003" />
    </g>
  </g>
  <g
     style="fill:#ffb612"
     transform="matrix(31,0,0,31,1495.91,1200.2434)"
     id="use3702">
    <g
       id="g3807">
      <polygon
         transform="matrix(0.95105652,0.30901699,-0.30901699,0.95105652,0,-1)"
         points="0,0 0,1 0.5,1 "
         id="polygon3809" />
      <polygon
         transform="matrix(-0.95105652,0.30901699,0.30901699,0.95105652,0,-1)"
         points="0,0 0,1 0.5,1 "
         id="use3811" />
    </g>
    <g
       id="use3813"
       transform="matrix(0.30901699,0.95105652,-0.95105652,0.30901699,0,0)">
      <polygon
         transform="matrix(0.95105652,0.30901699,-0.30901699,0.95105652,0,-1)"
         points="0,0 0,1 0.5,1 "
         id="polygon4007" />
      <polygon
         transform="matrix(-0.95105652,0.30901699,0.30901699,0.95105652,0,-1)"
         points="0,0 0,1 0.5,1 "
         id="use4009" />
    </g>
    <g
       id="use3815"
       transform="matrix(0.30901699,-0.95105652,0.95105652,0.30901699,0,0)">
      <polygon
         transform="matrix(0.95105652,0.30901699,-0.30901699,0.95105652,0,-1)"
         points="0,0 0,1 0.5,1 "
         id="polygon4013" />
      <polygon
         transform="matrix(-0.95105652,0.30901699,0.30901699,0.95105652,0,-1)"
         points="0,0 0,1 0.5,1 "
         id="use4015" />
    </g>
    <g
       id="use3817"
       transform="matrix(-0.80901699,0.58778525,-0.58778525,-0.80901699,0,0)">
      <polygon
         transform="matrix(0.95105652,0.30901699,-0.30901699,0.95105652,0,-1)"
         points="0,0 0,1 0.5,1 "
         id="polygon4019" />
      <polygon
         transform="matrix(-0.95105652,0.30901699,0.30901699,0.95105652,0,-1)"
         points="0,0 0,1 0.5,1 "
         id="use4021" />
    </g>
    <g
       id="use3819"
       transform="matrix(-0.80901699,-0.58778525,0.58778525,-0.80901699,0,0)">
      <polygon
         transform="matrix(0.95105652,0.30901699,-0.30901699,0.95105652,0,-1)"
         points="0,0 0,1 0.5,1 "
         id="polygon4025" />
      <polygon
         transform="matrix(-0.95105652,0.30901699,0.30901699,0.95105652,0,-1)"
         points="0,0 0,1 0.5,1 "
         id="use4027" />
    </g>
  </g>
  <g
     style="fill:#ffb612"
     transform="matrix(31,0,0,31,1683.91,1262.2434)"
     id="use3704">
    <g
       id="g3823">
      <polygon
         transform="matrix(0.95105652,0.30901699,-0.30901699,0.95105652,0,-1)"
         points="0,0 0,1 0.5,1 "
         id="polygon3825" />
      <polygon
         transform="matrix(-0.95105652,0.30901699,0.30901699,0.95105652,0,-1)"
         points="0,0 0,1 0.5,1 "
         id="use3827" />
    </g>
    <g
       id="use3829"
       transform="matrix(0.30901699,0.95105652,-0.95105652,0.30901699,0,0)">
      <polygon
         transform="matrix(0.95105652,0.30901699,-0.30901699,0.95105652,0,-1)"
         points="0,0 0,1 0.5,1 "
         id="polygon4031" />
      <polygon
         transform="matrix(-0.95105652,0.30901699,0.30901699,0.95105652,0,-1)"
         points="0,0 0,1 0.5,1 "
         id="use4033" />
    </g>
    <g
       id="use3831"
       transform="matrix(0.30901699,-0.95105652,0.95105652,0.30901699,0,0)">
      <polygon
         transform="matrix(0.95105652,0.30901699,-0.30901699,0.95105652,0,-1)"
         points="0,0 0,1 0.5,1 "
         id="polygon4037" />
      <polygon
         transform="matrix(-0.95105652,0.30901699,0.30901699,0.95105652,0,-1)"
         points="0,0 0,1 0.5,1 "
         id="use4039" />
    </g>
    <g
       id="use3833"
       transform="matrix(-0.80901699,0.58778525,-0.58778525,-0.80901699,0,0)">
      <polygon
         transform="matrix(0.95105652,0.30901699,-0.30901699,0.95105652,0,-1)"
         points="0,0 0,1 0.5,1 "
         id="polygon4043" />
      <polygon
         transform="matrix(-0.95105652,0.30901699,0.30901699,0.95105652,0,-1)"
         points="0,0 0,1 0.5,1 "
         id="use4045" />
    </g>
    <g
       id="use3835"
       transform="matrix(-0.80901699,-0.58778525,0.58778525,-0.80901699,0,0)">
      <polygon
         transform="matrix(0.95105652,0.30901699,-0.30901699,0.95105652,0,-1)"
         points="0,0 0,1 0.5,1 "
         id="polygon4049" />
      <polygon
         transform="matrix(-0.95105652,0.30901699,0.30901699,0.95105652,0,-1)"
         points="0,0 0,1 0.5,1 "
         id="use4051" />
    </g>
  </g>
</svg>
